<html>
<head>
<meta charset="UTF-8">
<meta name="viewport" content="width=device-width, initial-scale=1.0"/>

<style>
.comment
{
    padding-left: 20px;
    margin-top: 4px;
    margin-right: 4px;
    margin-bottom: 4px;
    border: 2px #000 solid;
}
.submission
{
    border: 4px #00f solid;
    padding-left: 20px;
}
.hidden
{
    display: none;
}
</style>
</head>
<body><div class="submission" id="t3_68xzra">
    <p class="userinfo">
        <a href="https://www.reddit.com/u/vcdupper">vcdupper</a>
        <span class="score"> | 31 points</span>
        <span class="timestamp"> | May 03 2017 03:37:09</span>
    </p>
    <strong>[MOVIE] AVP.Alien.vs.Predator.2004.Unrated.1080p.Bluray.x265.HEVC.10bit.AAC.5.1-Tigole [2.37GB]</strong>
    <p><p>Add mega<br>
.nz/#!lDAQBRID<br>
!rhpEZzvaLzUNSqpnT7dBnua1Sbg4vhQvma0bvka1QJQ  </p>
<hr>
<h3><a href="https://youtu.be/ixZnhA7Wmq4">Unsure How To Download?</a>  &lt;------CLICK HERE!!!</h3>
<hr>
<h3>SPECS:</h3>
<p>Format : Matroska<br>
Format version : Version 4 / Version 2<br>
File size : 2.37 GiB<br>
Duration : 1h 48mn<br>
Overall bit rate : 3 119 Kbps<br>
Encoded date : UTC 2016-10-15 18:40:06<br>
Writing application : mkvmerge v9.4.0 (\'Knurl\') 64bit<br>
Writing library : libebml v1.3.4 + libmatroska v1.4.5  </p>
<p>Video
ID : 1<br>
Format : HEVC<br>
Format/Info : High Efficiency Video Coding<br>
Format profile : Main 10@L4@Main<br>
Codec ID : V_MPEGH/ISO/HEVC<br>
Duration : 1h 48mn<br>
Bit rate : 2 481 Kbps<br>
Width : 1920 pixels<br>
Height : 816 pixels<br>
Display aspect ratio : 2.35:1<br>
Frame rate mode : Constant<br>
Frame rate : 23.976 (24000/1001) fps<br>
Color space : YUV<br>
Chroma subsampling : 4:2:0<br>
Bit depth : 10 bits<br>
Bits/(Pixel*Frame) : 0.066<br>
Stream size : 1.88 GiB (80%)<br>
Writing library : x265 2.1+2-c0d91c2b4048:[Windows][GCC 6.2.0][64 bit] 10bit<br>
Default : Yes<br>
Forced : No  </p>
<p>Audio<br>
ID : 2 <br>
Format : AAC<br>
Format/Info : Advanced Audio Codec<br>
Format profile : LC<br>
Codec ID : A_AAC<br>
Duration : 1h 48mn<br>
Bit rate : 338 Kbps<br>
Channel(s) : 6 channels<br>
Channel positions : Front: L C R, Side: L R, LFE<br>
Sampling rate : 48.0 KHz<br>
Frame rate : 46.875 fps (1024 spf)<br>
Compression mode : Lossy<br>
Delay relative to video : 20ms <br>
Stream size : 262 MiB (11%)<br>
Language : English<br>
Default : Yes<br>
Forced : No  </p>
<p>Text #1<br>
ID : 3<br>
Format : VobSub<br>
Muxing mode : zlib<br>
Codec ID : S_VOBSUB<br>
Codec ID/Info : Picture based subtitle format used on DVDs<br>
Duration : 1h 30mn<br>
Bit rate : 3 497 bps<br>
Count of elements : 642<br>
Stream size : 2.27 MiB (0%)<br>
Language : English<br>
Default : No<br>
Forced : No  </p>
<p>Text #2<br>
ID : 4<br>
Format : PGS<br>
Muxing mode : zlib<br>
Codec ID : S_HDMV/PGS<br>
Codec ID/Info : Picture based subtitle format used on BDs/HD-DVDs<br>
Duration : 1h 36mn<br>
Bit rate : 84.0 Kbps<br>
Count of elements : 466<br>
Stream size : 57.8 MiB (2%)<br>
Title : Trivia<br>
Language : English<br>
Default : No<br>
Forced : No  </p>
<p>Text #3<br>
ID : 5<br>
Format : VobSub  <br>
Muxing mode : zlib<br>
Codec ID : S_VOBSUB<br>
Codec ID/Info : Picture based subtitle format used on DVDs<br>
Duration : 1h 31mn<br>
Bit rate : 2 716 bps<br>
Count of elements : 553<br>
Stream size : 1.78 MiB (0%)<br>
Language : French<br>
Default : No<br>
Forced : No  </p>
<p>Text #4<br>
ID : 6<br>
Format : PGS  <br>
Muxing mode : zlib<br>
Codec ID : S_HDMV/PGS<br>
Codec ID/Info : Picture based subtitle format used on BDs/HD-DVDs<br>
Duration : 1h 35mn<br>
Bit rate : 80.1 Kbps<br>
Count of elements : 449<br>
Stream size : 54.9 MiB (2%)<br>
Title : Trivia<br>
Language : French<br>
Default : No<br>
Forced : No  </p>
<p>Text #5<br>
ID : 7<br>
Format : VobSub<br>
Muxing mode : zlib<br>
Codec ID : S_VOBSUB<br>
Codec ID/Info : Picture based subtitle format used on DVDs<br>
Duration : 1h 31mn<br>
Bit rate : 3 190 bps<br>
Count of elements : 531<br>
Stream size : 2.09 MiB (0%)<br>
Language : German<br>
Default : No<br>
Forced : No  </p>
<p>Text #6<br>
ID : 8<br>
Format : VobSub<br>
Muxing mode : zlib<br>
Codec ID : S_VOBSUB<br>
Codec ID/Info : Picture based subtitle format used on DVDs<br>
Duration : 1h 25mn<br>
Bit rate : 117 bps<br>
Count of elements : 18<br>
Stream size : 73.8 KiB (0%)<br>
Title : Forced<br>
Language : German<br>
Default : No<br>
Forced : No  </p>
<p>Text #7<br>
ID : 9<br>
Format : PGS<br>
Muxing mode : zlib<br>
Codec ID : S_HDMV/PGS<br>
Codec ID/Info : Picture based subtitle format used on BDs/HD-DVDs<br>
Duration : 1h 35mn<br>
Bit rate : 80.5 Kbps<br>
Count of elements : 449<br>
Stream size : 55.1 MiB (2%)<br>
Title : Trivia<br>
Language : German<br>
Default : No<br>
Forced : No  </p>
<p>Text #8<br>
ID : 10<br>
Format : VobSub<br>
Muxing mode : zlib<br>
Codec ID : S_VOBSUB<br>
Codec ID/Info : Picture based subtitle format used on DVDs<br>
Duration : 1h 31mn<br>
Bit rate : 2 721 bps<br>
Count of elements : 467<br>
Stream size : 1.78 MiB (0%)<br>
Language : Dutch<br>
Default : No<br>
Forced : No  </p>
<p>Text #9<br>
ID : 11<br>
Format : PGS<br>
Muxing mode : zlib<br>
Codec ID : S_HDMV/PGS<br>
Codec ID/Info : Picture based subtitle format used on BDs/HD-DVDs<br>
Duration : 1h 35mn<br>
Bit rate : 80.8 Kbps<br>
Count of elements : 451<br>
Stream size : 55.3 MiB (2%)<br>
Title : Trivia<br>
Language : Dutch<br>
Default : No<br>
Forced : No  </p></p>
    <p class="toolbar">
        <a href="https://www.reddit.com/r/megalinks/comments/68xzra">permalink</a>
    </p>
</div>
<div class="comment" id="t1_dh3gzvp">
    <p class="userinfo">
        <a
        class="toggle_hide_button"
        href="javascript:void(0)"
        onclick="toggle_collapse(this.parentElement.parentElement)">[-]
        </a>
        <a href="https://www.reddit.com/u/Dianic">Dianic</a>
        <span class="score"> | 3 points</span>
        <span class="timestamp"> | May 03 2017 22:28:14</span>
    </p>
    <div class="collapsible">
        <p>You rock!</p>
<p>Thanks for the quick reply!</p>
        <p class="toolbar">
            <a href="https://www.reddit.com/r/megalinks/comments/68xzra/_/dh3gzvp">permalink</a>
        </p>
        
    </div>
</div>

<div class="comment" id="t1_dh313he">
    <p class="userinfo">
        <a
        class="toggle_hide_button"
        href="javascript:void(0)"
        onclick="toggle_collapse(this.parentElement.parentElement)">[-]
        </a>
        <a href="https://www.reddit.com/u/sandspiegel">sandspiegel</a>
        <span class="score"> | 2 points</span>
        <span class="timestamp"> | May 03 2017 17:38:55</span>
    </p>
    <div class="collapsible">
        <p>Another great release. Do you by chance have the one from 1987 with Arnold Schwarzenegger in x265? </p>
        <p class="toolbar">
            <a href="https://www.reddit.com/r/megalinks/comments/68xzra/_/dh313he">permalink</a>
        </p>
        
    </div>
</div>

<div class="comment" id="t1_dh27pn6">
    <p class="userinfo">
        <a
        class="toggle_hide_button"
        href="javascript:void(0)"
        onclick="toggle_collapse(this.parentElement.parentElement)">[-]
        </a>
        <a href="https://www.reddit.com/u/SubZorro">SubZorro</a>
        <span class="score"> | 1 points</span>
        <span class="timestamp"> | May 03 2017 03:42:04</span>
    </p>
    <div class="collapsible">
        <h5>Subtitles for this movie:</h5>
<hr>
<blockquote>
<ul>
<li><strong>AVP.Alien.vs.Predator.2004.iNTERNAL.UNRATED.BDRip.x264-LiBRARiANS</strong> - <code>1 CD</code> - <a href="http://dl.opensubtitles.org/en/download/vrf-9ecb3c27/sub/6714622">Download Subtitle</a></li>
</ul>
</blockquote>
<hr>
<p>^This ^list ^of ^subtitles ^are ^taken ^from <a href="http://www.opensubtitles.org">^opensubtitles.org</a> ^| ^For ^feedback ^or ^suggestions ^contact <a href="http://www.reddit.com/message/compose/?to=indigo6alpha">^/u/indigo6alpha</a></p>
        <p class="toolbar">
            <a href="https://www.reddit.com/r/megalinks/comments/68xzra/_/dh27pn6">permalink</a>
        </p>
        
    </div>
</div>

<div class="comment" id="t1_dh2os7f">
    <p class="userinfo">
        <a
        class="toggle_hide_button"
        href="javascript:void(0)"
        onclick="toggle_collapse(this.parentElement.parentElement)">[-]
        </a>
        <a href="https://www.reddit.com/u/GhostHawk666">GhostHawk666</a>
        <span class="score"> | 1 points</span>
        <span class="timestamp"> | May 03 2017 13:51:02</span>
    </p>
    <div class="collapsible">
        <p>Why are so many 1080p films being encoded in x265 instead of x264 which is obviously more compatible with media players already in use in homes? I thought x265 was just to save space on 4K and UHD films. </p>
        <p class="toolbar">
            <a href="https://www.reddit.com/r/megalinks/comments/68xzra/_/dh2os7f">permalink</a>
        </p>
        <div class="comment" id="t1_dh2s9cn">
    <p class="userinfo">
        <a
        class="toggle_hide_button"
        href="javascript:void(0)"
        onclick="toggle_collapse(this.parentElement.parentElement)">[-]
        </a>
        <a href="https://www.reddit.com/u/sandspiegel">sandspiegel</a>
        <span class="score"> | 2 points</span>
        <span class="timestamp"> | May 03 2017 15:00:34</span>
    </p>
    <div class="collapsible">
        <p>Many people don't have a quick Internet connection so x265 is a lot better since you safe space and can achieve amazing picture quality with a lot less space. 
When it comes to compatibility you could connect a laptop to your tv which would fix all compatibility issues since media players like pot player can play pretty much all formats in great quality. </p>
        <p class="toolbar">
            <a href="https://www.reddit.com/r/megalinks/comments/68xzra/_/dh2s9cn">permalink</a>
        </p>
        <div class="comment" id="t1_dh4aff1">
    <p class="userinfo">
        <a
        class="toggle_hide_button"
        href="javascript:void(0)"
        onclick="toggle_collapse(this.parentElement.parentElement)">[-]
        </a>
        <a href="https://www.reddit.com/u/GhostHawk666">GhostHawk666</a>
        <span class="score"> | 1 points</span>
        <span class="timestamp"> | May 04 2017 13:06:26</span>
    </p>
    <div class="collapsible">
        <p>Laptop not an option. It would down-mix the audio to 2 channels instead of passing DTS or AC3 to my Dolby Atmos/DTS Neural:X HT Receiver. I just re-encode these 265's back to 264. It only takes about 40 minutes for a 2 hr film in HandBrake. Hard Drive Storage is cheap as hell so I could care less if the file is 1 GB bigger than the x265 version. </p>
        <p class="toolbar">
            <a href="https://www.reddit.com/r/megalinks/comments/68xzra/_/dh4aff1">permalink</a>
        </p>
        
    </div>
</div>
    </div>
</div>

<div class="comment" id="t1_dh44q0d">
    <p class="userinfo">
        <a
        class="toggle_hide_button"
        href="javascript:void(0)"
        onclick="toggle_collapse(this.parentElement.parentElement)">[-]
        </a>
        <a href="https://www.reddit.com/u/commit_bat">commit_bat</a>
        <span class="score"> | 1 points</span>
        <span class="timestamp"> | May 04 2017 09:33:04</span>
    </p>
    <div class="collapsible">
        <p>to save space</p>
        <p class="toolbar">
            <a href="https://www.reddit.com/r/megalinks/comments/68xzra/_/dh44q0d">permalink</a>
        </p>
        
    </div>
</div>
    </div>
</div>
</body>

<script>
function toggle_collapse(comment_div)
{
    var button = comment_div.getElementsByClassName("toggle_hide_button")[0];
    var collapsible = comment_div.getElementsByClassName("collapsible")[0];
    if (collapsible.classList.contains("hidden"))
    {
        collapsible.classList.remove("hidden");
        button.innerText = "[-]";
    }
    else
    {
        collapsible.classList.add("hidden");
        button.innerText = "[+]";
    }
}
</script>
</html>
